<?xml version="1.0" encoding="utf-8"?>
<!-- Generator: Adobe Illustrator 25.4.1, SVG Export Plug-In . SVG Version: 6.00 Build 0)  -->
<svg version="1.1" xmlns="http://www.w3.org/2000/svg" xmlns:xlink="http://www.w3.org/1999/xlink" x="0px" y="0px"
	 viewBox="0 0 256 256" style="enable-background:new 0 0 256 256;" xml:space="preserve">
<style type="text/css">
	.st0{display:none;}
	.st1{display:inline;}
	.st2{opacity:0.8;fill:#B8BDFF;}
	.st3{opacity:0.2;}
	.st4{fill:#FFFFFF;}
	.st5{fill:#E5891C;}
	.st6{fill:#1886D1;}
	.st7{fill:#0DA343;}
	.st8{fill:#993168;}
	.st9{fill:#D61664;}
	.st10{fill:#FBD942;}
	.st11{fill:#ECECEC;}
	.st12{fill:#F2EBCB;}
	.st13{fill:#F4EBC5;}
	.st14{fill:#F4EDCE;}
	.st15{fill:#EEEADA;}
	.st16{fill:#0C73BF;}
	.st17{fill:#D5D5D5;}
</style>
<g id="BACKGROUND" class="st0">
	<g class="st1">
		<rect x="-122" y="-122" class="st2" width="500" height="500"/>
		<g class="st3">
			<path class="st4" d="M347.47,117.69c0,3.02-0.43,10.73-1.28,22.81c-0.85,12.18-3.63,26.24-8.33,42.18
				c-4.7,16.04-11.96,32.91-21.78,50.72c-9.82,17.91-23.7,34.47-41.63,49.67c-17.93,15.1-40.57,27.7-67.9,37.59
				c-27.33,9.89-60.64,14.79-99.92,14.79c-31.6,0-60.21-3.54-85.83-10.83c-25.62-7.19-47.61-18.22-65.97-33.01
				c-18.36-14.89-32.67-33.85-42.92-57.07c-10.25-23.12-15.37-51.03-15.37-83.73c0-27.39,4.48-54.15,13.45-80.4
				c8.97-26.24,22.85-49.57,41.63-70.09c18.79-20.52,43.13-36.87,73.02-49.05C54.53-60.9,89.97-66.94,130.97-66.94
				c70.89,0,124.69,15.93,161.41,47.9C329.11,12.83,347.47,58.44,347.47,117.69z"/>
		</g>
	</g>
</g>
<g id="OBJECTS">
	<circle class="st5" cx="115.39" cy="22.78" r="20.92"/>
	<path class="st6" d="M52.68,39.01c0-12.06-9.78-21.85-21.85-21.85S8.99,26.94,8.99,39.01c0,12.06,9.78,21.85,21.85,21.85
		c2.96,0,5.79-0.59,8.36-1.66l6.29,6.29V55.21C49.9,51.21,52.68,45.44,52.68,39.01z"/>
	<path class="st7" d="M205.88,251.22l37.6,0c2.95,0,5.33-2.11,5.33-4.71l0-33.24c0-2.6-2.39-4.71-5.33-4.71l-22.11,0l-12.13-9.23
		v9.23h-3.36c-2.95,0-5.33,2.11-5.33,4.71l0,33.24C200.55,249.11,202.94,251.22,205.88,251.22z"/>
	<g>
		<path class="st4" d="M230.73,224.48l11.03,4.9v1.88l-11.03,5.52v-3.24l6.77-3.09l-6.77-2.75V224.48z"/>
		<path class="st4" d="M220.07,238.72l5.95-16.4h3.78l-5.95,16.4H220.07z"/>
		<path class="st4" d="M219.24,227.7l-6.77,2.75l6.77,3.09v3.24l-11.03-5.52v-1.88l11.03-4.9V227.7z"/>
	</g>
	<path class="st8" d="M240.74,16.9h-39.29c-3.08,0-5.57,2.49-5.57,5.57V46c0,3.08,2.49,5.57,5.57,5.57h1.81v11.07l11.97-11.07h25.51
		c3.08,0,5.57-2.49,5.57-5.57V22.47C246.31,19.4,243.82,16.9,240.74,16.9z"/>
	<g>
		<path class="st4" d="M204.46,37.52h-2.28v-9.78h2.28V37.52z M209.05,33.51h-4.78v-1.91h4.78V33.51z M208.89,27.74h2.26v9.78h-2.26
			V27.74z"/>
		<path class="st4" d="M215.49,37.52v-7.93h-3.13v-1.84h8.52v1.84h-3.13v7.93H215.49z"/>
		<path class="st4" d="M222.1,37.52v-9.78h1.87l4.16,6.9h-0.99l4.08-6.9h1.88v9.78h-2.11l-0.03-6.52h0.42l-3.3,5.47h-1.01
			l-3.34-5.47h0.46v6.52H222.1z"/>
		<path class="st4" d="M235.43,37.52v-9.78h2.28v7.93h4.87v1.84H235.43z"/>
	</g>
	<g>
		<path class="st4" d="M106.59,28.89c-0.87,0-1.67-0.14-2.41-0.42c-0.74-0.28-1.39-0.69-1.93-1.21c-0.54-0.52-0.97-1.14-1.27-1.84
			c-0.3-0.71-0.46-1.48-0.46-2.32c0-0.84,0.15-1.62,0.46-2.33c0.3-0.71,0.73-1.32,1.28-1.84c0.55-0.52,1.2-0.93,1.94-1.21
			c0.74-0.28,1.55-0.42,2.41-0.42c0.97,0,1.85,0.17,2.65,0.5c0.79,0.34,1.45,0.83,1.99,1.48l-1.68,1.54
			c-0.37-0.44-0.8-0.77-1.27-0.99s-0.99-0.34-1.55-0.34c-0.52,0-1,0.09-1.44,0.26c-0.44,0.18-0.82,0.42-1.14,0.75
			c-0.32,0.32-0.57,0.7-0.75,1.14s-0.26,0.92-0.26,1.46s0.09,1.02,0.26,1.46c0.18,0.44,0.42,0.82,0.75,1.14
			c0.32,0.32,0.7,0.57,1.14,0.75c0.44,0.18,0.92,0.26,1.44,0.26c0.56,0,1.07-0.11,1.55-0.34c0.48-0.23,0.9-0.56,1.27-1l1.68,1.54
			c-0.53,0.65-1.2,1.15-1.99,1.49C108.46,28.72,107.58,28.89,106.59,28.89z"/>
		<path class="st4" d="M116.61,28.89c-0.9,0-1.76-0.12-2.59-0.36c-0.83-0.24-1.49-0.55-2-0.94l0.88-1.96
			c0.47,0.34,1.04,0.62,1.7,0.84c0.66,0.22,1.33,0.33,2,0.33c0.51,0,0.93-0.05,1.24-0.16c0.31-0.11,0.55-0.25,0.7-0.42
			c0.15-0.18,0.22-0.38,0.22-0.62c0-0.3-0.12-0.54-0.35-0.71c-0.24-0.18-0.55-0.32-0.94-0.43c-0.39-0.11-0.82-0.22-1.27-0.32
			c-0.46-0.1-0.92-0.22-1.39-0.37c-0.47-0.14-0.89-0.34-1.28-0.58c-0.39-0.24-0.7-0.56-0.93-0.95s-0.34-0.88-0.34-1.47
			c0-0.64,0.17-1.23,0.51-1.76c0.34-0.53,0.86-0.95,1.56-1.27c0.7-0.31,1.58-0.47,2.64-0.47c0.71,0,1.4,0.09,2.09,0.26
			c0.69,0.17,1.29,0.42,1.8,0.74l-0.82,1.96c-0.5-0.29-1.02-0.51-1.56-0.65c-0.53-0.14-1.05-0.22-1.54-0.22
			c-0.51,0-0.92,0.06-1.23,0.17c-0.31,0.11-0.54,0.26-0.68,0.46c-0.14,0.19-0.22,0.41-0.22,0.64c0,0.3,0.12,0.54,0.35,0.72
			c0.24,0.18,0.55,0.32,0.93,0.43s0.81,0.2,1.28,0.3c0.47,0.1,0.94,0.23,1.4,0.38c0.46,0.15,0.88,0.34,1.27,0.57s0.7,0.54,0.94,0.93
			s0.36,0.87,0.36,1.45c0,0.63-0.17,1.21-0.52,1.73c-0.35,0.52-0.87,0.95-1.58,1.27S117.67,28.89,116.61,28.89z"/>
		<path class="st4" d="M126.84,28.89c-0.9,0-1.76-0.12-2.59-0.36c-0.83-0.24-1.49-0.55-2-0.94l0.88-1.96
			c0.47,0.34,1.04,0.62,1.7,0.84c0.66,0.22,1.33,0.33,2,0.33c0.51,0,0.93-0.05,1.24-0.16s0.55-0.25,0.7-0.42
			c0.15-0.18,0.22-0.38,0.22-0.62c0-0.3-0.12-0.54-0.35-0.71c-0.24-0.18-0.55-0.32-0.94-0.43c-0.39-0.11-0.81-0.22-1.27-0.32
			s-0.92-0.22-1.39-0.37c-0.47-0.14-0.89-0.34-1.28-0.58c-0.39-0.24-0.7-0.56-0.93-0.95s-0.34-0.88-0.34-1.47
			c0-0.64,0.17-1.23,0.51-1.76c0.34-0.53,0.86-0.95,1.56-1.27c0.7-0.31,1.58-0.47,2.64-0.47c0.71,0,1.4,0.09,2.09,0.26
			c0.69,0.17,1.29,0.42,1.8,0.74l-0.82,1.96c-0.5-0.29-1.02-0.51-1.55-0.65c-0.54-0.14-1.05-0.22-1.54-0.22
			c-0.51,0-0.92,0.06-1.23,0.17c-0.31,0.11-0.54,0.26-0.68,0.46c-0.14,0.19-0.22,0.41-0.22,0.64c0,0.3,0.12,0.54,0.35,0.72
			c0.24,0.18,0.55,0.32,0.93,0.43c0.38,0.1,0.81,0.2,1.28,0.3s0.94,0.23,1.39,0.38c0.46,0.15,0.88,0.34,1.27,0.57
			c0.39,0.23,0.7,0.54,0.94,0.93s0.36,0.87,0.36,1.45c0,0.63-0.17,1.21-0.52,1.73c-0.35,0.52-0.87,0.95-1.58,1.27
			C128.78,28.73,127.9,28.89,126.84,28.89z"/>
	</g>
	<g>
		<path class="st4" d="M22.44,49.56c-0.56,0-1.1-0.06-1.6-0.17c-0.5-0.11-0.93-0.29-1.28-0.51l0.96-2.58
			c0.41,0.29,0.91,0.43,1.51,0.43c0.46,0,0.81-0.15,1.06-0.43c0.25-0.29,0.38-0.75,0.38-1.37V32.68h3.56v12.23
			c0,1.43-0.4,2.56-1.2,3.4C25.03,49.14,23.9,49.56,22.44,49.56z M25.25,30.97c-0.67,0-1.21-0.19-1.62-0.57s-0.62-0.85-0.62-1.41
			c0-0.56,0.21-1.03,0.62-1.41c0.41-0.38,0.95-0.57,1.62-0.57c0.65,0,1.19,0.18,1.61,0.54c0.42,0.36,0.63,0.82,0.63,1.38
			c0,0.59-0.21,1.08-0.62,1.47S25.92,30.97,25.25,30.97z"/>
		<path class="st4" d="M34.46,45.14c-1.05,0-2.05-0.13-3.01-0.38s-1.73-0.57-2.3-0.95l1.16-2.53c0.58,0.33,1.25,0.61,2.02,0.83
			c0.77,0.22,1.52,0.33,2.27,0.33c0.82,0,1.4-0.1,1.74-0.3c0.34-0.2,0.51-0.47,0.51-0.82c0-0.29-0.13-0.51-0.4-0.65
			c-0.27-0.14-0.62-0.25-1.05-0.33c-0.43-0.08-0.92-0.15-1.45-0.23c-0.53-0.08-1.06-0.18-1.59-0.32c-0.52-0.14-1.01-0.33-1.46-0.58
			c-0.45-0.25-0.81-0.6-1.07-1.04c-0.27-0.44-0.4-1.01-0.4-1.71c0-0.78,0.23-1.46,0.68-2.06c0.46-0.6,1.1-1.07,1.94-1.4
			c0.84-0.33,1.85-0.5,3.03-0.5c0.85,0,1.71,0.1,2.57,0.29c0.86,0.19,1.58,0.45,2.18,0.79l-1.21,2.53
			c-0.58-0.33-1.17-0.57-1.77-0.71c-0.6-0.14-1.17-0.21-1.72-0.21c-0.82,0-1.41,0.11-1.78,0.32C33,35.72,32.82,36,32.82,36.33
			c0,0.3,0.14,0.54,0.41,0.7s0.63,0.28,1.07,0.35c0.44,0.08,0.93,0.15,1.46,0.23c0.53,0.08,1.06,0.18,1.57,0.32
			c0.52,0.14,1,0.33,1.45,0.58c0.45,0.25,0.81,0.6,1.07,1.04s0.4,1.01,0.4,1.71c0,0.75-0.23,1.41-0.68,2
			c-0.46,0.59-1.11,1.05-1.97,1.38C36.74,44.97,35.69,45.14,34.46,45.14z"/>
	</g>
	<path class="st9" d="M16.3,250.01h58.49c4.58,0,8.29-2.42,8.29-5.41v-22.83c0-2.99-3.71-5.41-8.29-5.41H72.1v-10.74l-17.82,10.74
		H16.3c-4.58,0-8.29,2.42-8.29,5.41v22.83C8.01,247.59,11.72,250.01,16.3,250.01z"/>
	<g>
		<path class="st4" d="M23.63,238.53c0,1.14-0.27,1.97-0.81,2.47c-0.54,0.5-1.29,0.76-2.25,0.76h-1.04v-2.41h0.64
			c0.29,0,0.5-0.06,0.62-0.18s0.19-0.32,0.19-0.6v-10.52h2.65V238.53z M21.16,226.64c-0.29-0.29-0.44-0.66-0.44-1.09
			c0-0.44,0.15-0.81,0.44-1.11c0.29-0.29,0.67-0.44,1.14-0.44c0.45,0,0.83,0.15,1.12,0.44c0.29,0.29,0.44,0.66,0.44,1.11
			c0,0.43-0.15,0.8-0.44,1.09c-0.29,0.29-0.67,0.44-1.12,0.44C21.83,227.08,21.45,226.93,21.16,226.64z"/>
		<path class="st4" d="M33.29,239.33l-1.4-2.01c-0.41,0.09-0.82,0.13-1.21,0.13c-1.02,0-1.96-0.25-2.81-0.77s-1.53-1.22-2.03-2.14
			c-0.5-0.92-0.75-1.94-0.75-3.09c0-1.14,0.25-2.17,0.75-3.08s1.18-1.62,2.03-2.13s1.79-0.77,2.81-0.77c1.02,0,1.96,0.25,2.81,0.77
			s1.52,1.22,2.02,2.13c0.49,0.91,0.74,1.94,0.74,3.08c0,1-0.19,1.91-0.57,2.74c-0.38,0.83-0.9,1.51-1.57,2.06l2.39,3.08H33.29z
			 M28.59,233.93c0.52,0.62,1.22,0.92,2.1,0.92c0.87,0,1.56-0.31,2.09-0.93c0.52-0.62,0.78-1.44,0.78-2.46
			c0-1.03-0.26-1.86-0.78-2.47c-0.52-0.62-1.22-0.92-2.09-0.92c-0.88,0-1.58,0.31-2.1,0.92s-0.78,1.44-0.78,2.48
			C27.8,232.49,28.06,233.31,28.59,233.93z"/>
		<path class="st4" d="M46.3,228.04v9.29h-2.65v-1.27c-0.27,0.41-0.63,0.74-1.09,0.99c-0.46,0.25-0.97,0.37-1.53,0.37
			c-0.66,0-1.25-0.16-1.75-0.47c-0.51-0.32-0.9-0.77-1.18-1.37s-0.42-1.3-0.42-2.11v-5.43h2.64v5.04c0,0.62,0.15,1.1,0.45,1.45
			c0.3,0.34,0.7,0.52,1.21,0.52c0.52,0,0.93-0.17,1.23-0.52s0.45-0.83,0.45-1.45v-5.04H46.3z"/>
		<path class="st4" d="M56.32,233.37h-6c0.04,0.58,0.21,1.02,0.52,1.32c0.31,0.31,0.68,0.46,1.12,0.46c0.66,0,1.12-0.3,1.38-0.9
			h2.82c-0.15,0.61-0.41,1.16-0.78,1.65s-0.85,0.87-1.42,1.15c-0.57,0.28-1.2,0.42-1.91,0.42c-0.85,0-1.6-0.19-2.26-0.58
			c-0.66-0.39-1.18-0.94-1.55-1.67c-0.37-0.72-0.56-1.57-0.56-2.53c0-0.97,0.18-1.81,0.55-2.53c0.37-0.72,0.88-1.28,1.54-1.67
			c0.66-0.39,1.42-0.58,2.28-0.58c0.84,0,1.58,0.19,2.23,0.57c0.65,0.38,1.16,0.92,1.53,1.62c0.37,0.7,0.55,1.51,0.55,2.45
			C56.37,232.8,56.35,233.08,56.32,233.37z M53.65,231.79c0-0.49-0.16-0.88-0.47-1.17c-0.31-0.29-0.7-0.43-1.16-0.43
			c-0.44,0-0.82,0.14-1.12,0.42c-0.31,0.28-0.49,0.67-0.57,1.18H53.65z"/>
		<path class="st4" d="M61.58,228.39c0.47-0.29,0.98-0.44,1.55-0.44v3.01H62.4c-0.66,0-1.16,0.15-1.49,0.46
			c-0.33,0.31-0.5,0.84-0.5,1.61v4.31h-2.65v-9.29h2.65v1.55C60.73,229.08,61.11,228.68,61.58,228.39z"/>
		<path class="st4" d="M73.24,228.04l-5.43,13.7h-2.85l1.98-4.73l-3.52-8.97h2.96l2,5.81l1.98-5.81H73.24z"/>
	</g>
	<path class="st10" d="M205.92,158.08c-0.44-0.43-0.26-0.99-0.26-1.49c-0.01-13.44-0.01-26.89,0-40.33c0-0.5-0.19-1.06,0.26-1.49
		c2.07,8.06,3.15,16.24,2.84,24.57C208.53,145.69,207.48,151.93,205.92,158.08z"/>
	<path class="st10" d="M50.27,114.76c0.44,0.43,0.26,0.99,0.26,1.49c0.01,13.44,0.01,26.89,0,40.33c0,0.5,0.19,1.06-0.26,1.49
		c-1-4.22-1.93-8.46-2.4-12.79c-0.14-1.31-0.12-2.61-0.16-3.92C47.44,132.4,47.75,123.47,50.27,114.76z"/>
	<path class="st11" d="M205.92,158.08c-1.45,4.88-3.21,9.64-5.45,14.21c-2.08,4.24-4.54,8.26-7.37,12.04
		c-0.62,0.11-1.23,0.21-1.87,0.21c-14.16-0.01-28.32-0.01-42.48,0c-0.47,0-0.94-0.06-1.41-0.05c-9.72,0.11-19.43,0.03-29.15,0.04
		c-3.1,0-6.2,0.07-9.29-0.04c-14.75,0.1-29.49,0.01-44.24,0.05c-0.53,0-1.04-0.14-1.56-0.2c-1.73-2.27-3.27-4.67-4.73-7.13
		c-1.48-2.51-2.63-5.17-4-7.73c-1.66-3.11-2.52-6.58-3.63-9.92c-0.16-0.48-0.42-0.95-0.47-1.47c0.1-1.78-0.26-3.52-0.25-5.3
		c0.04-10.9,0.04-21.81,0-32.72c-0.01-1.78,0.35-3.53,0.26-5.3c0.28-0.7,0.28-1.43,0.28-2.17c-0.01-10.66-0.01-21.31,0-31.97
		c0.01-4.6,3.92-8.74,8.51-9.15c7.23-0.65,14.47-0.12,21.7-0.29c0.98-0.43,2.01-0.53,3.07-0.53c29.51,0.01,59.03,0.01,88.54,0
		c1.06,0,2.09,0.1,3.07,0.53c6.41,0,12.81-0.08,19.22,0.02c5.56,0.09,9.26,2.28,10.8,7.72c0.19,0.68,0.19,1.34,0.19,2.02
		c0.01,10.55,0.01,21.1,0,31.66c0,0.74,0,1.47,0.28,2.17c-0.1,1.78,0.26,3.52,0.25,5.3c-0.04,10.91-0.04,21.81,0,32.72
		C206.18,154.56,205.83,156.31,205.92,158.08z"/>
	<path class="st10" d="M175.44,71.18c-0.52,0.02-1.05,0.05-1.57,0.05c-30.51,0-61.02,0-91.53,0c-0.52,0-1.05-0.03-1.57-0.05
		c7.54-5.69,15.98-9.52,24.97-12.33c9.75-3.04,19.78-3.41,29.77-2.69C150.19,57.23,163.55,62.39,175.44,71.18z"/>
	<path class="st11" d="M116.13,216.47c-3.58-0.83-7.24-1.34-10.74-2.51c-2.01-0.67-4.12-1.08-5.97-2.17
		c0.01-2.15,0.87-4.03,1.83-5.88c2.5-1.14,5.19-1.63,7.82-2.35c13.11-3.61,26.22-7.2,39.34-10.75c0.56-0.15,1.1-0.37,1.69-0.16
		c0.77,0.42,0.96,1.22,1.2,1.95c1.76,5.24,3.65,10.44,5.37,15.69c0.16,0.49,0.39,0.98,0.1,1.51c-2.98,1.53-6.23,2.27-9.43,3.1
		c-2.4,0.62-4.85,1.06-7.28,1.58c-0.52-0.23-1.04-0.25-1.56,0.01c-0.32,0.1-0.65,0.2-0.97,0.3c-0.62-0.23-1.24-0.24-1.85,0.01
		c-0.54,0.1-1.07,0.21-1.61,0.31c-1.09-0.32-2.21-0.07-3.31-0.15c-0.57,0.07-1.17-0.16-1.72,0.16c-0.63,0-1.27,0-1.9,0
		c-0.55-0.32-1.15-0.08-1.72-0.16c-1.1,0.08-2.22-0.17-3.31,0.15c-0.54-0.1-1.07-0.21-1.61-0.31c-0.62-0.24-1.24-0.23-1.85-0.01
		c-0.32-0.1-0.65-0.2-0.97-0.3C117.17,216.23,116.65,216.24,116.13,216.47z"/>
	<path class="st10" d="M156.78,211.79c-2.21-6.32-4.41-12.63-6.62-18.95c-1.34-2.63-2.23-5.42-3.02-8.24
		c-0.06-0.21,0.05-0.41,0.19-0.58c14.88-0.01,29.76-0.03,44.64-0.03c0.4,0,0.86-0.12,1.13,0.34c-6.41,8.41-13.99,15.55-23.07,21.03
		C165.81,207.91,161.44,210.16,156.78,211.79z"/>
	<path class="st10" d="M101.37,206.09c-0.65,1.9-1.31,3.8-1.96,5.7c-8.49-3.11-16.12-7.7-23.06-13.46
		c-4.98-4.14-9.31-8.88-13.25-13.99c0.27-0.46,0.73-0.34,1.13-0.34c14.88,0.01,29.76,0.02,44.65,0.03c0.44,0.63,0.08,1.22-0.12,1.79
		c-2.18,6.27-4.36,12.54-6.48,18.84C102.09,205.2,101.85,205.72,101.37,206.09z"/>
	<path class="st12" d="M122.12,217.1c1.1-0.65,2.31-0.14,3.45-0.3c0.11,0.07,0.14,0.13,0.11,0.2c-0.04,0.07-0.07,0.1-0.11,0.1
		C124.42,217.1,123.27,217.1,122.12,217.1z"/>
	<path class="st12" d="M130.62,216.81c1.15,0.15,2.35-0.35,3.45,0.3c-1.15,0-2.3,0-3.45,0c-0.11-0.07-0.14-0.13-0.11-0.2
		C130.55,216.84,130.59,216.81,130.62,216.81z"/>
	<path class="st13" d="M118.66,216.78c0.62-0.45,1.24-0.46,1.85,0.01C119.9,216.79,119.28,216.79,118.66,216.78z"/>
	<path class="st13" d="M135.68,216.79c0.62-0.47,1.23-0.46,1.85-0.01C136.92,216.79,136.3,216.79,135.68,216.79z"/>
	<path class="st14" d="M116.13,216.47c0.52-0.45,1.04-0.45,1.56,0.01C117.17,216.48,116.65,216.48,116.13,216.47z"/>
	<path class="st14" d="M138.51,216.48c0.52-0.46,1.04-0.46,1.56-0.01C139.55,216.48,139.03,216.48,138.51,216.48z"/>
	<path class="st15" d="M125.57,217.1c0-0.1,0-0.2,0-0.3c0.53,0.07,1.13-0.21,1.57,0.3C126.62,217.11,126.1,217.11,125.57,217.1z"/>
	<path class="st15" d="M130.62,216.81c0,0.1,0,0.2,0,0.3c-0.52,0-1.05,0.01-1.57,0.01C129.49,216.59,130.09,216.88,130.62,216.81z"
		/>
	<path class="st16" d="M128.03,163.95c-22.12,0-44.23,0-66.35,0c-3.7,0-4.55-0.84-4.55-4.53c0-25.69,0-51.37,0-77.06
		c0-3.6,0.94-4.52,4.61-4.52c44.23,0,88.46,0,132.7,0c3.72,0,4.63,0.91,4.63,4.66c0,25.69,0,51.37,0,77.06
		c0,3.49-0.89,4.39-4.37,4.39C172.47,163.96,150.25,163.95,128.03,163.95z"/>
	<path class="st17" d="M101.37,206.09c2.45-7.15,4.9-14.31,7.35-21.46c0.07-0.2,0.1-0.4,0.15-0.6c12.82,0,25.64,0,38.46,0
		c0.76,3,2.21,5.77,2.83,8.82c-4.99,1.34-9.98,2.66-14.96,4.01c-8.56,2.33-17.11,4.68-25.67,7.02
		C106.81,204.62,104.09,205.35,101.37,206.09z"/>
	<g>
		<path class="st4" d="M86.11,127.85l-14.28-5.4v-3.9l14.28-5.4v3.69l-12.9,4.71v-2.1l12.9,4.71V127.85z"/>
		<path class="st4" d="M87.67,131L97,110h4.8l9.42,21h-5.1l-7.71-18.54h1.95L92.65,131H87.67z M92.38,126.5l1.23-3.69h10.86
			l1.26,3.69H92.38z"/>
		<path class="st4" d="M123.16,131.36c-1.62,0-3.12-0.26-4.51-0.79c-1.39-0.53-2.6-1.28-3.62-2.26c-1.02-0.98-1.81-2.13-2.38-3.45
			c-0.57-1.32-0.85-2.77-0.85-4.35c0-1.58,0.29-3.03,0.85-4.35c0.57-1.32,1.37-2.47,2.4-3.45c1.03-0.98,2.24-1.73,3.63-2.27
			c1.39-0.53,2.9-0.79,4.51-0.79c1.82,0,3.47,0.31,4.95,0.95c1.48,0.63,2.72,1.56,3.72,2.77l-3.15,2.88
			c-0.7-0.82-1.5-1.44-2.38-1.86c-0.89-0.42-1.86-0.63-2.9-0.63c-0.98,0-1.88,0.17-2.7,0.5c-0.82,0.33-1.53,0.79-2.13,1.4
			c-0.6,0.6-1.06,1.31-1.39,2.13c-0.33,0.82-0.5,1.73-0.5,2.73s0.17,1.91,0.5,2.73c0.33,0.82,0.79,1.53,1.39,2.13
			c0.6,0.6,1.31,1.06,2.13,1.4c0.82,0.33,1.72,0.49,2.7,0.49c1.04,0,2-0.21,2.9-0.65c0.89-0.43,1.68-1.05,2.38-1.87l3.15,2.88
			c-1,1.22-2.24,2.15-3.72,2.79C126.66,131.04,125,131.36,123.16,131.36z"/>
		<path class="st4" d="M144.7,131.36c-1.62,0-3.12-0.26-4.51-0.79c-1.39-0.53-2.59-1.28-3.61-2.26c-1.02-0.98-1.82-2.13-2.38-3.45
			c-0.57-1.32-0.86-2.77-0.86-4.35c0-1.58,0.29-3.03,0.86-4.35c0.57-1.32,1.37-2.47,2.4-3.45c1.03-0.98,2.24-1.73,3.63-2.27
			c1.39-0.53,2.89-0.79,4.51-0.79c1.82,0,3.47,0.31,4.95,0.95c1.48,0.63,2.72,1.56,3.72,2.77l-3.15,2.88
			c-0.7-0.82-1.5-1.44-2.38-1.86c-0.89-0.42-1.85-0.63-2.89-0.63c-0.98,0-1.88,0.17-2.7,0.5s-1.53,0.79-2.13,1.4
			c-0.6,0.6-1.06,1.31-1.39,2.13c-0.33,0.82-0.5,1.73-0.5,2.73s0.17,1.91,0.5,2.73c0.33,0.82,0.79,1.53,1.39,2.13
			c0.6,0.6,1.31,1.06,2.13,1.4c0.82,0.33,1.72,0.49,2.7,0.49c1.04,0,2-0.21,2.89-0.65c0.89-0.43,1.68-1.05,2.38-1.87l3.15,2.88
			c-1,1.22-2.24,2.15-3.72,2.79C148.2,131.04,146.54,131.36,144.7,131.36z"/>
		<path class="st4" d="M153.16,134l9.9-28.26h4.14L157.3,134H153.16z"/>
		<path class="st4" d="M167.77,127.85v-3.69l12.9-4.71v2.1l-12.9-4.71v-3.69l14.28,5.4v3.9L167.77,127.85z"/>
	</g>
</g>
<g id="DESIGNED_BY_FREEPIK">
</g>
</svg>
